<svg height="512pt" viewBox="0 -4 512.00022 512" width="512pt" xmlns="http://www.w3.org/2000/svg"><path d="m114.03125 113.40625v130.277344l114.027344 65.136718 114.03125-65.136718v-130.277344l-114.03125-65.140625zm0 0" fill="#ffda30"/><path d="m228.058594 308.96875v130.277344l114.03125 65.136718 114.027344-65.136718v-130.277344l-114.027344-65.140625zm0 0" fill="#f7ca00"/><path d="m386.375 446.617188c-2.644531 0-5.210938-1.378907-6.617188-3.839844-2.085937-3.648438-.816406-8.296875 2.832032-10.382813l30.828125-17.609375v-33.640625c0-4.203125 3.410156-7.609375 7.613281-7.609375s7.609375 3.40625 7.609375 7.609375v38.058594c0 2.730469-1.460937 5.253906-3.835937 6.609375l-34.664063 19.800781c-1.1875.679688-2.484375 1.003907-3.765625 1.003907zm0 0" fill="#ebb400"/><path d="m0 308.96875v130.277344l114.03125 65.136718 114.027344-65.136718v-130.277344l-114.027344-65.140625zm0 0" fill="#ffe469"/><path d="m158.316406 446.039062c-2.644531 0-5.210937-1.378906-6.617187-3.839843-2.085938-3.648438-.816407-8.296875 2.835937-10.382813l30.824219-17.609375v-33.640625c0-4.203125 3.410156-7.609375 7.613281-7.609375s7.613282 3.40625 7.613282 7.609375v38.058594c0 2.730469-1.464844 5.253906-3.835938 6.609375l-34.664062 19.800781c-1.191407.679688-2.488282 1.003906-3.769532 1.003906zm0 0" fill="#ffda30"/><path d="m504.527344 207.675781-49.476563-.890625c-.046875 0-.09375 0-.140625 0-4.140625 0-7.53125 3.320313-7.609375 7.472656-.074219 4.207032 3.273438 7.671876 7.476563 7.75l49.472656.890626h.140625c4.140625 0 7.535156-3.316407 7.609375-7.472657.074219-4.203125-3.273438-7.671875-7.472656-7.75zm0 0" fill="#9e9e9e"/><path d="m358.484375 41.5c-21.105469-32.972656-53.738281-49.765625-72.886719-37.507812-19.152344 12.257812-17.570312 48.921874 3.53125 81.894531 21.105469 32.972656 53.738282 49.765625 72.886719 37.507812 19.152344-12.257812 17.570313-48.925781-3.53125-81.894531zm0 0" fill="#cbe6f7"/><path d="m339.695312 109.640625c-77.78125-2.550781-142.308593 40.203125-144.121093 95.492187-1.816407 55.292969 59.769531 102.183594 137.550781 104.738282 77.78125 2.550781 142.308594-40.203125 144.125-95.492188 1.8125-55.292968-59.773438-102.183594-137.554688-104.738281zm0 0" fill="#ffe469"/><path d="m357.476562 111.039062c45.730469 17.929688 76.398438 52.941407 75.109376 92.191407-1.816407 55.289062-66.339844 98.042969-144.121094 95.488281-6.03125-.199219-11.964844-.664062-17.78125-1.378906 18.683594 7.324218 39.875 11.800781 62.4375 12.542968 77.777344 2.550782 142.304687-40.199218 144.117187-95.488281 1.675781-51-50.59375-94.851562-119.761719-103.355469zm0 0" fill="#ffda30"/><path d="m378.785156 116.636719-1.449218-2.089844c-11.941407-2.765625-24.5625-4.453125-37.640626-4.882813-22.722656-.746093-44.308593 2.378907-63.535156 8.546876 1.339844 1.449218 80.074219 87.078124-5.046875 179.019531l-.199219.199219c18.625 7.273437 39.738282 11.714843 62.207032 12.453124 12.792968.421876 25.226562-.390624 37.082031-2.277343l2.382813-2.117188c80.613281-91.882812 6.199218-188.851562 6.199218-188.851562zm0 0" fill="#9e9e9e"/><path d="m338.675781 309.980469c5.570313.027343 11.140625-.175781 16.695313-.617188 4.855468-.386719 9.996094-1.761719 14.832031-1.761719l2.382813-2.113281c11.613281-13.238281 19.992187-26.578125 25.859374-39.722656-26.5625 21.453125-66.167968 34.390625-109.980468 32.953125-5.933594-.195312-11.769532-.652344-17.496094-1.347656 10.160156 5.128906 23.167969 7.640625 34.460938 9.644531 10.964843 1.949219 22.109374 2.902344 33.246093 2.964844zm0 0" fill="#828282"/><path d="m271.636719 210.054688c-.082031 0-.167969 0-.253907-.003907-4.199218-.136719-7.496093-3.65625-7.355468-7.855469.21875-6.726562-5.074219-12.378906-11.800782-12.601562-6.699218-.230469-12.382812 5.074219-12.601562 11.800781-.140625 4.199219-3.632812 7.492188-7.859375 7.355469-4.199219-.136719-7.496094-3.65625-7.355469-7.855469.496094-15.117187 13.207032-27.023437 28.3125-26.515625 15.117188.496094 27.015625 13.199219 26.519532 28.316406-.136719 4.113282-3.515626 7.359376-7.605469 7.359376zm0 0" fill="#9e9e9e"/><path d="m428.636719 8.699219c-18.304688-13.488281-51.96875 1.128906-75.1875 32.644531-23.222657 31.515625-27.207031 67.996094-8.902344 81.484375s51.96875-1.128906 75.191406-32.644531c23.21875-31.515625 27.207031-67.996094 8.898438-81.484375zm0 0" fill="#bee1f7"/></svg>